#!OML:ASF F:\VICON\USERDATA\INSTALL\rory3\rory3.ASF
:FULLY-SPECIFIED
:DEGREES
62
root 0.4730805587627483 17.61816557992849 36.712493645252614 -2.0331662552792924 -4.520630446532097 -6.962632102996429
lfemur -24.752809281566712 -3.5479033237686703 -11.793915351156954
ltibia 25.64008827070498
lfoot -4.518453310989755 -3.218035438178251
ltoes -8.997503054271675
rfemur 4.373525127070325 3.2590617553591157 33.172798663555575
rtibia 37.62859254867236
rfoot -8.875727367694592 -7.002163326184862
rtoes 1.9586730772173793
lowerback 10.024710978971594 2.018345136314491 5.788383114863422
upperback -0.23247013881364062 3.3588361435527183 1.9643129297828823
thorax -6.028007641813373 1.1780191044090003 -1.4928752309921507
lowerneck -16.387904819370505 -3.5985751241542343 -1.9904587479795188
upperneck 20.945104054033727 -4.534230168540308 2.0177414825510955
head 9.359636051219413 -2.1450704873465103 0.3530277761462461
lclavicle 2.999245094362062e-16 5.589843890626392e-17
lhumerus -36.459142948465924 8.321124878472194 80.81177841971127
lradius 21.70352839037657
lwrist 6.870466885036061
lhand -29.122979777165845 19.984374581178365
lfingers 7.125020000000001
lthumb -2.2491656792168273 50.694875558473754
rclavicle 2.9808543830196513e-16 5.457783819007601e-17
rhumerus -20.41642364418793 -12.365391997478126 -80.24995782037911
rradius 29.558790184957292
rwrist 1.5478885383762417
rhand -18.234129877900795 23.032852443980097
rfingers 7.125020000000001
rthumb 7.954082781096797 -6.989652005141586
63
root 0.5295228404561402 17.642406159277883 37.97968324726335 -2.8848753125552147 -4.193740301041029 -5.983739588289566
lfemur -23.97460164419739 -2.8646427446753404 -13.782319630906441
ltibia 29.745897654242942
lfoot -5.396514962040136 -3.3587499094013618
ltoes -8.741818849699204
rfemur 3.878468899673587 2.5979895167646303 31.975375609675808
rtibia 41.30221223496194
rfoot -7.918594506608709 -6.660064356056115
rtoes 2.592495167680758
lowerback 10.092737118886168 2.024163843457033 5.215929824226858
upperback -0.19625784932622076 3.347982926856913 1.8431088743608512
thorax -6.030927108089283 1.2034764599373995 -1.363856921549129
lowerneck -16.392743593873828 -3.5531287857349745 -2.063694174417685
upperneck 20.9767125783443 -4.552216912391998 2.052264403916503
head 9.373092914128087 -2.137166322717466 0.38315551092019895
lclavicle 2.9992450943572866e-16 5.589843890592101e-17
lhumerus -36.670803543459996 8.98115279684011 80.34689343408543
lradius 21.970694758863083
lwrist 7.108132672625173
lhand -29.040195028650594 20.29312543024689
lfingers 7.125020000000001
lthumb -2.1877164288237507 50.923194605249
rclavicle 2.980854383017698e-16 5.457783818993571e-17
rhumerus -20.972513989574225 -13.184843903528082 -80.05702107951991
rradius 29.71550299192321
rwrist 1.6805869740247483
rhand -18.23169321891272 23.04052814681101
rfingers 7.125020000000001
rthumb 7.978970731707259 -6.946149040746081
64
root 0.5858447703132147 17.686187328005772 39.280521021237234 -3.626633882009659 -4.000825486746654 -4.790361261106342
lfemur -22.5165082057254 -2.6111494681363077 -15.77209167586301
ltibia 33.7363558393581
lfoot -6.035807180499128 -3.149238745800251
ltoes -8.709194113100294
rfemur 1.9743348923031618 1.5856047448958805 30.44091541181201
rtibia 45.04496262698927
rfoot -6.844537749274877 -6.361164293346722
rtoes 3.5253692848409957
lowerback 10.250351989691499 2.0285465632437782 4.490694902453608
upperback -0.15493275413132732 3.245288101699261 1.6710057447127706
thorax -6.042023464748543 1.2101159365743603 -1.174640387995346
lowerneck -16.42320208396798 -3.4986971868982657 -2.137573879730618
upperneck 20.991417663732857 -4.594453249274656 2.048327889038081
head 9.36755535822416 -2.144443931419985 0.39536177190019595
lclavicle 2.999245094356613e-16 5.589843890587263e-17
lhumerus -36.851896106212486 9.303771322366828 79.97702359509132
lradius 22.324035326044577
lwrist 7.459140288813884
lhand -29.120509476325623 19.988367381733877
lfingers 7.125020000000001
lthumb -2.296130937082252 50.57827175433796
rclavicle 2.9808543830188033e-16 5.457783819001511e-17
rhumerus -22.17564530937507 -14.299053189554046 -79.79432738746189
rradius 29.960270034289298
rwrist 1.919259953104654
rhand -18.233052952436452 23.023473865594923
rfingers 7.125020000000001
rthumb 8.021721835753185 -6.881813038730315
65
root 0.6313704046078603 17.739314345050722 40.19826122204757 -4.186356423783078 -3.9209649354512286 -3.5829337923005484
lfemur -20.465891133780335 -1.960884810958603 -17.78095262010068
ltibia 36.44886235147541
lfoot -6.542546420330817 -2.5968596870695433
ltoes -8.35797814807173
rfemur -0.4209147720095654 0.5102342268738314 29.038639909977984
rtibia 48.352826349252126
rfoot -5.348032205786626 -6.118585944990935
rtoes 3.8468305355500836
lowerback 10.459724903861005 2.0182554387352454 3.643056916678014
upperback -0.08651399146849248 3.0930388686048307 1.4933597174600557
thorax -6.062117793354453 1.1870949314210721 -0.9354291407111777
lowerneck -16.481768840826966 -3.463126438504601 -2.2391478701453664
upperneck 21.031987142307987 -4.603050517950123 2.1019138451473
head 9.38448616706085 -2.1346501326007865 0.42946891426049466
lclavicle 2.9992450943682577e-16 5.589843890670881e-17
lhumerus -36.90646878060421 9.428898154829948 79.75168663207694
lradius 22.721784180345352
lwrist 7.771290025251223
lhand -29.06877137248411 20.18273868301752
lfingers 7.125020000000001
lthumb -2.252103410568751 50.778083450938816
rclavicle 2.9808543830180967e-16 5.457783818996436e-17
rhumerus -23.654303489378545 -15.503316708141284 -79.52240257418013
rradius 30.152513932143563
rwrist 1.97534498339352
rhand -18.201189982602386 23.06068410574419
rfingers 7.125020000000001
rthumb 7.984685312553092 -6.981387419672214
66
root 0.6595484997931103 17.7920471961998 40.632983709098596 -4.592582552677261 -3.768239798014491 -2.613625661726605
lfemur -17.616865687626397 -1.5617080226976026 -19.882117312793568
ltibia 37.989747890681485
lfoot -6.559756612033121 -2.0442536134307177
ltoes -8.100204728127038
rfemur -3.4603717184856215 -0.5720477479895232 27.74414704104771
rtibia 50.621916639197345
rfoot -3.6800263074569832 -6.109347049272633
rtoes 4.466124782585992
lowerback 10.681700538248627 1.9628754515418165 2.7975042392098333
upperback -0.002889154833214072 2.846127088437786 1.3239552714049552
thorax -6.086196250801734 1.132978500166539 -0.671227502802789
lowerneck -16.52110276320591 -3.4204447742043245 -2.3109089421102285
upperneck 21.060740878082925 -4.569025313731377 2.1573526478563045
head 9.37214235062368 -2.13904837801133 0.4328434598450464
lclavicle 2.9992450943709866e-16 5.589843890690476e-17
lhumerus -36.84828729601146 9.223875967945375 79.66386869283191
lradius 23.135766163142122
lwrist 7.863157013228436
lhand -29.145810284573997 19.888260896413627
lfingers 7.125020000000001
lthumb -2.3872205517603597 50.3552012218205
rclavicle 2.980854383018094e-16 5.457783818996415e-17
rhumerus -24.95454861183357 -16.57215413162701 -79.3786221230707
rradius 30.10568751802437
rwrist 2.021719096490609
rhand -18.19960055412675 23.062291481510105
rfingers 7.125020000000001
rthumb 7.9996617596786965 -6.998714630937387
67
root 0.6795287669164058 17.838036809116915 41.36348525794777 -4.862321320220534 -3.3039250066200583 -1.898526108516477
lfemur -14.275857703290985 -1.6758604987019132 -21.385433770852213
ltibia 38.56257347068524
lfoot -7.168783888114396 -1.9376503224743358
ltoes -8.124049917606817
rfemur -6.91103360654203 -1.55028587848172 26.501108857659354
rtibia 51.86945867517573
rfoot -2.250362653937028 -6.363759489881904
rtoes 4.512423511805958
lowerback 10.913313378553463 1.812963040497294 1.9176965003409976
upperback 0.0696326844276022 2.4579814494880328 1.1767672723937412
thorax -6.108963436528599 1.062664675257657 -0.35207437721939305
lowerneck -16.563478335165875 -3.370139441422371 -2.3607418675038647
upperneck 21.034712817611503 -4.52514652709589 2.1682204604426984
head 9.35582960861201 -2.137483775522198 0.4382455598544216
lclavicle 2.999245094370737e-16 5.589843890688686e-17
lhumerus -36.566569551538876 8.738798074756359 79.74362850259254
lradius 23.547221819917716
lwrist 8.118653408529234
lhand -29.069597464494507 20.156662483347777
lfingers 7.125020000000001
lthumb -2.3526624748543843 50.52621504905425
rclavicle 2.9808543830174425e-16 5.457783818991737e-17
rhumerus -25.87817126112897 -17.550250641982412 -79.34052477470217
rradius 29.939410998293816
rwrist 2.3214832400202985
rhand -18.11020196662768 23.210118852041884
rfingers 7.125020000000001
rthumb 7.996051982254471 -7.038236913077285
68
root 0.6881878335944002 17.863261456029463 42.09356596083862 -5.024879086361805 -2.5963528088460692 -1.460849719093812
lfemur -10.849717633247506 -1.8276934328034278 -22.169015830201335
ltibia 38.32566927201497
lfoot -7.296621724180418 -1.3482059033143323
ltoes -7.692478356338057
rfemur -10.625536279171104 -2.353018434319429 25.479921459937458
rtibia 52.25208378319508
rfoot -1.3878541014037538 -6.850886086628072
rtoes 3.634057309344929
lowerback 11.164417710616485 1.609094162239732 1.2756070687612235
upperback 0.15198971753705726 2.0567920776162665 1.1061983713762273
thorax -6.121443368330079 0.9744284846830774 0.026867233062102702
lowerneck -16.651207909784894 -3.338926894944596 -2.418155324676959
upperneck 20.960430107352405 -4.499228342288229 2.156233771497233
head 9.33363353547553 -2.1366115966044092 0.43257646084393203
lclavicle 2.9992450943723997e-16 5.589843890700623e-17
lhumerus -36.000907480997974 7.969360283633442 79.98141470629379
lradius 24.073328350493902
lwrist 8.155013274647212
lhand -29.08010175154212 20.041754745399587
lfingers 7.125020000000001
lthumb -2.4801735281966577 50.11324430799648
rclavicle 2.980854383017349e-16 5.4577838189910666e-17
rhumerus -26.610195487503596 -18.540251868223244 -79.21550449761278
rradius 29.843319245527283
rwrist 2.6820299850013836
rhand -18.09379508040719 23.22984525184733
rfingers 7.125020000000001
rthumb 8.026252554626701 -7.007809334045666
